<?xml version="1.0" encoding="UTF-8"?>
<!DOCTYPE svg PUBLIC "-//W3C//DTD SVG 1.1//EN" "http://www.w3.org/Graphics/SVG/1.1/DTD/svg11.dtd">
<!-- Creator: CorelDRAW X8 -->
<svg xmlns="http://www.w3.org/2000/svg" xml:space="preserve" width="2.30978in" height="2.30978in" version="1.1" style="shape-rendering:geometricPrecision; text-rendering:geometricPrecision; image-rendering:optimizeQuality; fill-rule:evenodd; clip-rule:evenodd" viewBox="0 0 2541 2541" xmlns:xlink="http://www.w3.org/1999/xlink"><g id="Layer_x0020_1"><metadata id="CorelCorpID_0Corel-Layer"/><path fill="#45AFD1" d="M173 0l1399 0c-42,139 -50,303 7,479l228 66c-13,-39 -25,-91 -33,-134l-4 -131c91,90 334,354 406,386 61,27 177,23 245,0l-92 -92c-413,-415 -543,-494 -532,-574l175 0 569 569 0 173c-372,172 -744,-159 -1241,-199 -624,-50 -855,427 -729,944l220 68c-3,-67 -22,-100 -22,-171 108,104 300,374 556,292l-573 -574 65 -151 771 773c-360,288 -1029,-307 -1588,-150l0 -1401c0,-95 78,-173 173,-173zm2067 0l128 0c95,0 173,78 173,173l0 131 -301 -304zm301 970l0 1398c0,95 -78,173 -173,173l-1401 0c42,-139 50,-303 -8,-479l-227 -66c12,39 24,91 32,135l5 131c-264,-262 -379,-478 -651,-387l92 93c413,415 542,493 531,573l-175 0 -566 -566 0 -177c371,-169 743,160 1239,200 623,50 855,-426 729,-944l-220 -67c2,66 21,99 22,170 -109,-104 -300,-374 -557,-291l573 574 -64 150 -772 -772c142,-114 417,-68 576,-25 208,55 365,142 574,180 145,26 287,45 441,-3zm-2243 1571l-125 0c-95,0 -173,-78 -173,-173l0 -127 298 300z"/></g></svg>
